# xmcd
#
# Track frame offsets:
#	150
#	10982
#	25133
#	41693
#	55379
#	71075
#	80565
#	95394
#	108746
#	119048
#	128358
#	141092
#	156349
#
# Disc length: 2267 seconds
#
# Revision: 1
# Processed by: cddbd v1.5.2PL0 Copyright (c) Steve Scherf et al.
# Submitted via: audiograbber 1.83.01
#
DISCID=b508d90d
DTITLE=Rakovnickej Potok - Stara slepice
DYEAR=2012
DGENRE=Country
TTITLE0=Neco mi chybi
TTITLE1=Kdyz je malo vody
TTITLE2=Divoka kytka
TTITLE3=Molly
TTITLE4=Lov jelenu na brehu reky Cumberland
TTITLE5=Old-Time Medley
TTITLE6=Stara slepice
TTITLE7=Hej mulo!
TTITLE8=Kripl Krik
TTITLE9=Na tom bosileckym mostku
TTITLE10=Red Haired Boy
TTITLE11=Devce mit
TTITLE12=Velka voda
EXTD=
EXTT0=
EXTT1=
EXTT2=
EXTT3=
EXTT4=
EXTT5=
EXTT6=
EXTT7=
EXTT8=
EXTT9=
EXTT10=
EXTT11=
EXTT12=
PLAYORDER=
